<!-- Generator: Adobe Illustrator 22.1.0, SVG Export Plug-In  -->
<svg version="1.1" xmlns="http://www.w3.org/2000/svg" xmlns:xlink="http://www.w3.org/1999/xlink" xmlns:a="http://ns.adobe.com/AdobeSVGViewerExtensions/3.0/" x="0px" y="0px" width="561.9px" height="372.7px" viewBox="0 0 561.9 372.7" style="enable-background:new 0 0 561.9 372.7;" xml:space="preserve">
<style type="text/css">
	.st0{fill:none;stroke:#5B5B5B;stroke-width:7;stroke-linejoin:round;stroke-miterlimit:10;}
	.st1{fill:#FFFFFF;stroke:#474646;stroke-width:7;stroke-linejoin:round;stroke-miterlimit:10;}
	.st2{stroke:#5B5B5B;stroke-width:7;stroke-linejoin:round;stroke-miterlimit:10;}
	.st3{fill:#FFFFFF;stroke:#000000;stroke-linejoin:round;stroke-miterlimit:10;}
	.st4{fill:#969595;}
	.st5{fill:none;stroke:#5B5B5B;stroke-width:6;stroke-linecap:round;stroke-miterlimit:10;}
	.st6{fill:none;stroke:#5B5B5B;stroke-width:6;stroke-miterlimit:10;}
	.st7{fill:none;stroke:#5B5B5B;stroke-width:6;stroke-linecap:round;stroke-linejoin:round;stroke-miterlimit:10;}
</style>
<defs>
</defs>
<path class="st0" d="M399,319.5H74c-39,0-70.5-29.5-70.5-65.9V69.4C3.5,33,35.1,3.5,74,3.5H399c39,0,70.5,29.5,70.5,65.9"/>
<path class="st1" d="M540.5,239"/>
<ellipse class="st2" cx="242" cy="154.5" rx="96" ry="95.5"/>
<path class="st3" d="M297.3,91.2c22.2,16.4,30.9,49.8,30.9,49.8c-23.1-35.8-56.4-30.8-56.4-30.8c4.3-1.5,10.8-4.3,17.2-9.8  C292.6,97.2,295.4,93.9,297.3,91.2z"/>
<path class="st4" d="M560.7,220.3c13.2,36-86.9,90-86.9,90l-30.6-32C443.2,278.2,530.5,138.1,560.7,220.3z"/>
<path class="st4" d="M369.5,220.9l46.9,29c0,0-12,40.3-31.1,38.9C385.3,288.7,318.6,277.9,369.5,220.9z"/>
<path class="st4" d="M467.7,74.7c-46-7.1-86.2,125.1-86.2,125.1l45.4,28.7C426.9,228.5,572.6,90.9,467.7,74.7z"/>
<path class="st4" d="M459.6,322l-29.4-31.3c0,0-28.7,15.2-24.6,29.4C405.6,320.2,424.4,369.2,459.6,322z"/>
<g>
	<path class="st5" d="M87.7,339.8H68c0,0-2.5,0.8-2.5,4.9v24.7"/>
	<line class="st5" x1="66.3" y1="353.8" x2="78.3" y2="353.8"/>
</g>
<ellipse class="st6" cx="106.2" cy="355.6" rx="13.6" ry="14"/>
<g>
	<line class="st7" x1="126.8" y1="342.4" x2="150.6" y2="342.4"/>
	<line class="st7" x1="138.3" y1="344" x2="138.3" y2="369.1"/>
</g>
<ellipse class="st6" cx="171.1" cy="355.6" rx="13.6" ry="14"/>
<g>
	<path class="st5" d="M310.7,339.6H291c0,0-2.5,0.8-2.5,4.9v24.7"/>
	<line class="st5" x1="289.4" y1="353.6" x2="301.3" y2="353.6"/>
</g>
<ellipse class="st6" cx="329.7" cy="355.6" rx="13.6" ry="14"/>
<g>
	<line class="st7" x1="349" y1="341.6" x2="372.8" y2="341.6"/>
	<line class="st7" x1="360.5" y1="343.2" x2="360.5" y2="368.3"/>
</g>
<g>
	<line class="st7" x1="193.9" y1="342.6" x2="217.7" y2="342.6"/>
	<line class="st7" x1="205.4" y1="344.3" x2="205.4" y2="369.3"/>
</g>
<line class="st7" x1="227.8" y1="343.4" x2="227.8" y2="369.6"/>
<path class="st5" d="M254.6,369.1l-10.5-0.1c0,0-1.3-0.8-1.3-4.5L243,342"/>
<path class="st5" d="M277.1,369.7l-10.5-0.1c0,0-1.3-0.8-1.3-4.5l0.2-22.4"/>
<path class="st5" d="M395.8,341.3c0,0-16.7-5.1-16.7,10.2h14.1c0,0,2.6,15.4-12.8,17.9"/>
</svg>